# xmcd
#
# Track frame offsets: 
#        150
#        18727
#        37402
#        72170
#        92641
#        120716
#        155076
#        185890
#        219760
#        237735
#
# Disc length: 3647 seconds
#
# Revision: 0
# Processed by: cddbd v1.5.2PL0 Copyright (c) Steve Scherf et al.
# Submitted via: ExactAudioCopy v0.99pb5
#
DISCID=970e3d0a
DTITLE=Jimmy James - Blue Moon Rising
DYEAR=2001
DGENRE=Blues
TTITLE0=Last Night
TTITLE1=Ride That Train
TTITLE2=Addicted
TTITLE3=Thank You
TTITLE4=Blue Moon Rising
TTITLE5=Do The Things
TTITLE6=Cry Me A River
TTITLE7=It's Time
TTITLE8=H2O
TTITLE9=Spread Your Wings
EXTD=
EXTT0=
EXTT1=
EXTT2=
EXTT3=
EXTT4=
EXTT5=
EXTT6=
EXTT7=
EXTT8=
EXTT9=
PLAYORDER=
